<svg xmlns="http://www.w3.org/2000/svg" xmlns:xlink="http://www.w3.org/1999/xlink" width="100" zoomAndPan="magnify" viewBox="0 0 75 74.999997" height="100" preserveAspectRatio="xMidYMid meet" version="1.0"><defs><clipPath id="9ce38c0361"><path d="M 9.765625 62.265625 L 15 62.265625 L 15 67.515625 L 9.765625 67.515625 Z M 9.765625 62.265625 " clip-rule="nonzero"/></clipPath></defs><path fill="#004e98" d="M 48.257812 28.484375 L 32.761719 43.976562 L 26.742188 37.957031 C 25.789062 37.003906 24.242188 37.003906 23.289062 37.957031 C 22.335938 38.910156 22.335938 40.457031 23.289062 41.410156 L 32.761719 50.882812 L 34.492188 49.15625 L 51.710938 31.9375 C 52.664062 30.984375 52.664062 29.4375 51.710938 28.484375 C 50.757812 27.527344 49.210938 27.527344 48.257812 28.484375 " fill-opacity="1" fill-rule="nonzero"/><path fill="#004e98" d="M 54.960938 44.875 C 54.484375 45.996094 53.898438 47.078125 53.214844 48.089844 C 52.535156 49.09375 51.757812 50.039062 50.898438 50.898438 C 50.039062 51.757812 49.09375 52.535156 48.089844 53.214844 C 47.078125 53.898438 45.996094 54.484375 44.875 54.960938 C 43.730469 55.441406 42.539062 55.8125 41.324219 56.0625 C 40.074219 56.316406 38.789062 56.449219 37.5 56.449219 C 36.210938 56.449219 34.925781 56.316406 33.675781 56.0625 C 32.460938 55.8125 31.269531 55.441406 30.125 54.960938 C 29.003906 54.484375 27.921875 53.898438 26.910156 53.214844 C 25.90625 52.535156 24.960938 51.757812 24.101562 50.898438 C 23.242188 50.039062 22.464844 49.09375 21.785156 48.089844 C 21.101562 47.078125 20.515625 45.996094 20.039062 44.875 C 19.558594 43.730469 19.1875 42.539062 18.9375 41.320312 C 18.683594 40.074219 18.550781 38.789062 18.550781 37.5 C 18.550781 36.210938 18.683594 34.925781 18.9375 33.675781 C 19.1875 32.460938 19.558594 31.269531 20.039062 30.125 C 20.515625 29.003906 21.101562 27.921875 21.785156 26.910156 C 22.464844 25.90625 23.242188 24.960938 24.101562 24.101562 C 24.960938 23.242188 25.90625 22.464844 26.910156 21.785156 C 27.921875 21.101562 29.003906 20.515625 30.125 20.039062 C 31.269531 19.558594 32.460938 19.1875 33.675781 18.9375 C 34.925781 18.683594 36.210938 18.550781 37.5 18.550781 C 38.789062 18.550781 40.074219 18.683594 41.324219 18.9375 C 42.539062 19.1875 43.730469 19.558594 44.875 20.039062 C 45.996094 20.515625 47.078125 21.101562 48.089844 21.785156 C 49.09375 22.464844 50.039062 23.242188 50.898438 24.101562 C 51.757812 24.960938 52.535156 25.90625 53.214844 26.910156 C 53.898438 27.921875 54.484375 29.003906 54.960938 30.125 C 55.441406 31.269531 55.8125 32.460938 56.0625 33.675781 C 56.316406 34.925781 56.449219 36.210938 56.449219 37.5 C 56.449219 38.789062 56.316406 40.074219 56.0625 41.320312 C 55.8125 42.539062 55.441406 43.730469 54.960938 44.875 Z M 37.5 15 C 25.074219 15 15 25.074219 15 37.5 C 15 49.925781 25.074219 60 37.5 60 C 49.925781 60 60 49.925781 60 37.5 C 60 25.074219 49.925781 15 37.5 15 " fill-opacity="1" fill-rule="nonzero"/><path fill="#ffffff" d="M 13.628906 63.832031 L 11.828125 65.628906 L 11.128906 64.929688 C 11.019531 64.820312 10.839844 64.820312 10.726562 64.929688 C 10.617188 65.042969 10.617188 65.222656 10.726562 65.332031 L 11.628906 66.230469 L 11.828125 66.433594 L 12.027344 66.230469 L 14.027344 64.230469 C 14.140625 64.121094 14.140625 63.941406 14.027344 63.832031 C 13.917969 63.71875 13.738281 63.71875 13.628906 63.832031 " fill-opacity="1" fill-rule="nonzero"/><g clip-path="url(#9ce38c0361)"><path fill="#ffffff" d="M 14.40625 65.734375 C 14.351562 65.863281 14.28125 65.992188 14.203125 66.109375 C 14.125 66.226562 14.035156 66.335938 13.933594 66.433594 C 13.835938 66.535156 13.726562 66.625 13.609375 66.703125 C 13.492188 66.78125 13.363281 66.851562 13.234375 66.90625 C 13.101562 66.960938 12.964844 67.003906 12.824219 67.035156 C 12.675781 67.0625 12.527344 67.078125 12.378906 67.078125 C 12.230469 67.078125 12.078125 67.0625 11.933594 67.035156 C 11.792969 67.003906 11.65625 66.960938 11.523438 66.90625 C 11.390625 66.851562 11.265625 66.78125 11.148438 66.703125 C 11.03125 66.625 10.921875 66.535156 10.824219 66.433594 C 10.722656 66.335938 10.632812 66.226562 10.554688 66.109375 C 10.472656 65.992188 10.40625 65.863281 10.351562 65.734375 C 10.292969 65.601562 10.25 65.464844 10.222656 65.324219 C 10.191406 65.175781 10.175781 65.027344 10.175781 64.878906 C 10.175781 64.730469 10.191406 64.578125 10.222656 64.433594 C 10.25 64.292969 10.292969 64.15625 10.351562 64.023438 C 10.40625 63.890625 10.472656 63.765625 10.554688 63.648438 C 10.632812 63.53125 10.722656 63.421875 10.824219 63.324219 C 10.921875 63.222656 11.03125 63.132812 11.148438 63.054688 C 11.265625 62.972656 11.390625 62.90625 11.523438 62.851562 C 11.65625 62.792969 11.792969 62.75 11.933594 62.722656 C 12.078125 62.691406 12.230469 62.675781 12.378906 62.675781 C 12.527344 62.675781 12.675781 62.691406 12.824219 62.722656 C 12.964844 62.75 13.101562 62.792969 13.234375 62.851562 C 13.363281 62.90625 13.492188 62.972656 13.609375 63.054688 C 13.726562 63.132812 13.835938 63.222656 13.933594 63.324219 C 14.035156 63.421875 14.125 63.53125 14.203125 63.648438 C 14.28125 63.765625 14.351562 63.890625 14.40625 64.023438 C 14.460938 64.15625 14.503906 64.292969 14.535156 64.433594 C 14.5625 64.578125 14.578125 64.730469 14.578125 64.878906 C 14.578125 65.027344 14.5625 65.175781 14.535156 65.324219 C 14.503906 65.464844 14.460938 65.601562 14.40625 65.734375 Z M 12.378906 62.265625 C 10.933594 62.265625 9.765625 63.433594 9.765625 64.878906 C 9.765625 66.320312 10.933594 67.492188 12.378906 67.492188 C 13.820312 67.492188 14.992188 66.320312 14.992188 64.878906 C 14.992188 63.433594 13.820312 62.265625 12.378906 62.265625 " fill-opacity="1" fill-rule="nonzero"/></g></svg>