<svg xmlns="http://www.w3.org/2000/svg" xmlns:xlink="http://www.w3.org/1999/xlink" width="40" zoomAndPan="magnify" viewBox="0 0 30 30.000001" height="40" preserveAspectRatio="xMidYMid meet" version="1.0"><defs><clipPath id="efed7188da"><path d="M 9.300781 8.820312 L 20.914062 8.820312 L 20.914062 20.429688 L 9.300781 20.429688 Z M 9.300781 8.820312 " clip-rule="nonzero"/></clipPath><clipPath id="285577a707"><path d="M 20.699219 23.589844 L 22 23.589844 L 22 25 L 20.699219 25 Z M 20.699219 23.589844 " clip-rule="nonzero"/></clipPath><clipPath id="a4d4e888db"><path d="M 20.699219 23.589844 L 22.148438 23.589844 L 22.148438 25 L 20.699219 25 Z M 20.699219 23.589844 " clip-rule="nonzero"/></clipPath></defs><path fill="#004e98" d="M 17.71875 12.230469 L 13.796875 16.148438 L 12.273438 14.628906 C 12.03125 14.386719 11.640625 14.386719 11.398438 14.628906 C 11.160156 14.867188 11.160156 15.257812 11.398438 15.5 L 13.796875 17.898438 L 18.589844 13.105469 C 18.832031 12.863281 18.832031 12.472656 18.589844 12.230469 C 18.351562 11.988281 17.957031 11.988281 17.71875 12.230469 " fill-opacity="1" fill-rule="nonzero"/><g clip-path="url(#efed7188da)"><path fill="#004e98" d="M 19.414062 16.378906 C 19.292969 16.660156 19.144531 16.933594 18.972656 17.191406 C 18.800781 17.445312 18.601562 17.683594 18.386719 17.902344 C 18.167969 18.117188 17.929688 18.316406 17.675781 18.488281 C 17.417969 18.660156 17.144531 18.808594 16.859375 18.929688 C 16.574219 19.050781 16.269531 19.144531 15.960938 19.207031 C 15.648438 19.273438 15.320312 19.304688 14.996094 19.304688 C 14.667969 19.304688 14.34375 19.273438 14.027344 19.207031 C 13.722656 19.144531 13.417969 19.050781 13.128906 18.929688 C 12.847656 18.808594 12.570312 18.660156 12.316406 18.488281 C 12.0625 18.316406 11.824219 18.117188 11.605469 17.902344 C 11.386719 17.683594 11.191406 17.445312 11.019531 17.191406 C 10.847656 16.933594 10.699219 16.660156 10.578125 16.378906 C 10.457031 16.089844 10.363281 15.785156 10.296875 15.480469 C 10.234375 15.164062 10.203125 14.835938 10.203125 14.511719 C 10.203125 14.1875 10.234375 13.859375 10.296875 13.542969 C 10.363281 13.238281 10.457031 12.933594 10.578125 12.644531 C 10.699219 12.363281 10.847656 12.089844 11.019531 11.832031 C 11.191406 11.578125 11.386719 11.339844 11.605469 11.121094 C 11.824219 10.90625 12.0625 10.707031 12.316406 10.535156 C 12.570312 10.363281 12.847656 10.214844 13.128906 10.09375 C 13.417969 9.972656 13.722656 9.878906 14.027344 9.816406 C 14.34375 9.75 14.667969 9.71875 14.996094 9.71875 C 15.320312 9.71875 15.648438 9.75 15.960938 9.816406 C 16.269531 9.878906 16.574219 9.972656 16.859375 10.09375 C 17.144531 10.214844 17.417969 10.363281 17.675781 10.535156 C 17.929688 10.707031 18.167969 10.90625 18.386719 11.121094 C 18.601562 11.339844 18.800781 11.578125 18.972656 11.832031 C 19.144531 12.089844 19.292969 12.363281 19.414062 12.644531 C 19.535156 12.933594 19.628906 13.238281 19.691406 13.542969 C 19.757812 13.859375 19.789062 14.1875 19.789062 14.511719 C 19.789062 14.835938 19.757812 15.164062 19.691406 15.480469 C 19.628906 15.785156 19.535156 16.089844 19.414062 16.378906 Z M 14.996094 8.820312 C 11.851562 8.820312 9.300781 11.367188 9.300781 14.511719 C 9.300781 17.65625 11.851562 20.203125 14.996094 20.203125 C 18.140625 20.203125 20.6875 17.65625 20.6875 14.511719 C 20.6875 11.367188 18.140625 8.820312 14.996094 8.820312 " fill-opacity="1" fill-rule="nonzero"/></g><g clip-path="url(#285577a707)"><path fill="#ff5700" d="M 21.710938 24 L 21.238281 24.472656 L 21.054688 24.289062 C 21.027344 24.257812 20.980469 24.257812 20.949219 24.289062 C 20.921875 24.316406 20.921875 24.363281 20.949219 24.394531 L 21.1875 24.628906 L 21.238281 24.683594 L 21.816406 24.105469 C 21.847656 24.074219 21.847656 24.027344 21.816406 24 C 21.789062 23.972656 21.742188 23.972656 21.710938 24 " fill-opacity="1" fill-rule="nonzero"/></g><g clip-path="url(#a4d4e888db)"><path fill="#ff5700" d="M 21.917969 24.5 C 21.902344 24.535156 21.882812 24.566406 21.863281 24.597656 C 21.84375 24.628906 21.820312 24.65625 21.792969 24.683594 C 21.765625 24.710938 21.738281 24.734375 21.707031 24.753906 C 21.675781 24.773438 21.644531 24.792969 21.609375 24.808594 C 21.574219 24.820312 21.539062 24.832031 21.5 24.839844 C 21.460938 24.847656 21.421875 24.851562 21.382812 24.851562 C 21.34375 24.851562 21.304688 24.847656 21.265625 24.839844 C 21.230469 24.832031 21.195312 24.820312 21.160156 24.808594 C 21.125 24.792969 21.089844 24.773438 21.0625 24.753906 C 21.03125 24.734375 21 24.710938 20.976562 24.683594 C 20.949219 24.65625 20.925781 24.628906 20.90625 24.597656 C 20.882812 24.566406 20.867188 24.535156 20.851562 24.5 C 20.835938 24.464844 20.824219 24.429688 20.816406 24.390625 C 20.808594 24.351562 20.804688 24.3125 20.804688 24.273438 C 20.804688 24.234375 20.808594 24.195312 20.816406 24.160156 C 20.824219 24.121094 20.835938 24.085938 20.851562 24.050781 C 20.867188 24.015625 20.882812 23.984375 20.90625 23.953125 C 20.925781 23.921875 20.949219 23.890625 20.976562 23.867188 C 21 23.839844 21.03125 23.816406 21.0625 23.796875 C 21.089844 23.773438 21.125 23.757812 21.160156 23.742188 C 21.195312 23.726562 21.230469 23.714844 21.265625 23.707031 C 21.304688 23.699219 21.34375 23.695312 21.382812 23.695312 C 21.421875 23.695312 21.460938 23.699219 21.5 23.707031 C 21.539062 23.714844 21.574219 23.726562 21.609375 23.742188 C 21.644531 23.757812 21.675781 23.773438 21.707031 23.796875 C 21.738281 23.816406 21.765625 23.839844 21.792969 23.867188 C 21.820312 23.890625 21.84375 23.921875 21.863281 23.953125 C 21.882812 23.984375 21.902344 24.015625 21.917969 24.050781 C 21.929688 24.085938 21.941406 24.121094 21.949219 24.160156 C 21.957031 24.195312 21.960938 24.234375 21.960938 24.273438 C 21.960938 24.3125 21.957031 24.351562 21.949219 24.390625 C 21.941406 24.429688 21.929688 24.464844 21.917969 24.5 Z M 21.382812 23.589844 C 21.003906 23.589844 20.699219 23.894531 20.699219 24.273438 C 20.699219 24.652344 21.003906 24.960938 21.382812 24.960938 C 21.761719 24.960938 22.070312 24.652344 22.070312 24.273438 C 22.070312 23.894531 21.761719 23.589844 21.382812 23.589844 " fill-opacity="1" fill-rule="nonzero"/></g></svg>